<svg id="Layer_1" data-name="Layer 1" xmlns="http://www.w3.org/2000/svg" preserveAspectRatio="xMidYMid meet" width="100%" height="100%" viewBox="0 0 436.06 109.74"><title>Jingle Fever</title><path d="M159.7,208.36h0.25l0.25-.25,0.74-.12q6.78,0,6.9.12h0.25l0.25-.25h0.25l-0.12,4.56-0.25.25v0.49l0.74-.49q-0.56,2.47.25,2.47-1.23,1.48-.74,1.48-0.37,4.81.49,5.18l-0.25.25,0.25,0.25-0.25,1,0.49,0.49-0.25,1,0.49,4.19-0.74,4.69,0.49,0.49v0.25l-0.25.25h0.25l-0.25.25,0.25,2.22-0.25,1.48,0.25,2v0.74l-0.25.25,0.49,0.74-0.25.25v1.23l0.25,0.25h-0.49v0.25l0.74,2.71-0.49,3,0.25,0.74-0.25.25v0.25l0.25,0.25-0.49,2.47,0.49,3-0.25.74,0.25,1v0.25l-0.25.25h0.25l-0.25,2.71,0.49,0.49-0.25.74v0.25l0.25,0.25v0.25l-0.25.25,0.25,0.74V265l-0.25.25,0.25,2.22v4.44l-0.25.25q0.31,0,.49,2.22h-0.25l-0.25.25,0.49,0.49-0.25.74,0.25,1-0.25,1.48v0.49l0.25,0.25h-0.49l0.49,1.48h-0.25l0.49,3-0.49,1.23,0.25,1.48-0.62,6.9,0.25,1.23-0.25.25v0.25l0.25,0.25q0.62,8.82-3.58,14.3l-2.84,2.71q-3.45,1.85-3.45,2.22l-0.25-.25a9.51,9.51,0,0,1-4.69,1.23l-0.25-.25,0.25,0.25h-1q-1.73,0-1.73-.49-3.39,0-8.26-4.69-0.56-1.48-1.48-1.48v-0.49a34.62,34.62,0,0,1-2.59-14.06v-7.89l-0.25-1.23,0.25-.25-0.25-.74,0.25,13.32-0.25-1.73,0.25-2.22v-6.17l-0.25-1.48,0.25-.62v-3l0.25-.25a6.16,6.16,0,0,1,2.71.49l0.74-.49v0.49l5.8-.49,1.23,0.25,0.25,3-0.25,1.6,0.25,5.67-0.25-.86,0.49,1.23-0.25,2.22v-8.51l0.25,0.25h-0.25l0.25,4.81V292l-0.25.25,0.25,0.25v0.49l-0.25,1.73h0.25l0.25-.25v0.74l-0.25.25h0.25a39.56,39.56,0,0,0,.37,4.56q2.16,3.21,3.21,3.21,0.93,0.74.25-1.23,3.39-1.85,2.71-8.51v-0.49l-0.25-1.36,0.25-2.71-0.25-1,0.25-1v-1.48l-0.25-2,0.25-2v-2l-0.25-2.22,0.25-1.23-0.25-1,0.25-.74-0.25-2,0.25-.74-0.25-1.23,0.25-.74h-0.25l0.25-.25-0.25-.74,0.25-1-0.25-3.45v-0.49l0.25,0.25H158l-0.25-.25L158,263l-0.49-3.7,0.25-2.71h-0.49l0.49-1.23q0-.74-0.49-0.74l0.25-3v-2.22l0.25-.25-0.25-.25v-1.48l-0.25-1.73,0.25-.25L157.23,244V243.5h0.25l0.25,0.25V243.5l-0.49-.74v-0.25l0.25-.25L157,241v-0.25l0.25-.25L157,239.8l0.49-4.44L157,229.2h0.49v-0.74l-0.49-2v-0.25l0.25-1-0.49-3H157a54.69,54.69,0,0,1,.25-7.77,0.5,0.5,0,0,0,.62-0.49l-0.25.25-0.49-5.67v-0.49h0.49v0.49l0.86-.74Zm-2,54.62h-0.25V261.5h0.25V263Z" transform="translate(-139.47 -205.52)"/><path d="M185,210.58l-0.12-.12-0.49-.19,0.18-2.9,1.79-.68,7.71,0.06a2.75,2.75,0,0,1,1.11.31q1.48,0,1.73,2.71a6.59,6.59,0,0,0-.68.43l-0.06.62-0.49.12a0.18,0.18,0,0,0-.06.12l0.43,0.12,0.31-.19h0.31l0.06,1-0.55.49v3a2.41,2.41,0,0,1,.62,1.91l-0.68.8v0.43h0.68v0.74q0.06,2-.68,2.65v0.37l0.18,0.18v0.25l-0.18.19v0.31q0.74,0,.74.49v0.49l-0.19.74,0.25,1.23,0.06,2.47L196.75,231l0.25,1.23h-0.25l0.25,0.25-0.49,3.45v0.74l0.37,1.23a8.22,8.22,0,0,1-.56,3l-0.06.8a1.81,1.81,0,0,1,.43,1.11v0.49l-0.31.25,0.31,0.25,0.06,2.71-0.31.25,0.31,0.25v0.25l-0.31,1.48,0.37,2.71-0.31.25v0.25l0.31,0.25-0.25,1.73v3.21l0.37,1a1.93,1.93,0,0,1-.74,1.66l0.31,0.86-0.12.19v1.23l-0.12.43,0.12,0.43-0.25.06-0.25.49,0.19,0.19,0.37,0.37-0.12.12,0.06,0.06v0.25l0.06,0.06v1.23h-0.25v0.06l0.06,0.37a1,1,0,0,1,.25.55l-0.12.31,0.37,1.91-0.31.06v0.86l0.31,0.43v0.43h-0.37l-0.06.68,0.19,0.43-0.19,5.67,0.06,0.06v0.25l-0.06.18-0.06,1.6,0.19,0.92v2l-0.25.8,0.06,1.66h0.25v1.48a1,1,0,0,0-.19.25l0.06,2.65h-0.12a0.05,0.05,0,0,1,.06.06v0.12l0.06,0.06v2l0.49,2.47-0.68.68,0.55,2.22-0.43.12,0.12,0.43-0.06.31,0.37,0.49v0.43l-0.55.74v0.74l0.31,1-0.19,5.18-0.06,1.67,0.12,0.8h-0.19V309l0.19,0.19-0.25,2.47,0.06,2-0.56.49H194l-0.56-.49-5.55.55-0.31-.25v-0.74H191l-0.12-.25h-3.95a2,2,0,0,1-1.17,1.48q0-.55-1.36-0.68l-0.31.25v-1.23l0.25-.25-0.31-.25v-0.49l0.31-.25-0.31-.25V311l0.06-4.19-0.18-1.11,0.18-.25,0.06-2.34-0.25-.74H184v-0.12l-0.12-.12,0.74-4.93-0.56-.49L184,295.47a2.22,2.22,0,0,1,.19-1l-0.31-2.28,0.31-.31v-0.37l0.31-.25-0.31-.25v-0.25l0.31-.37-0.12-1.48-0.19-.37a0.17,0.17,0,0,0,.12-0.12l-0.12-1.17v-0.68h-0.06v-1l0.18-.12,0.06-4.69-0.49-3.14,0.43-.12v-0.06l0.19-.86v-0.37l-0.19-.74,0.12-.31-0.25-2.71,0.12-1.91-0.18-.25h0.18l0.06-1.29-0.25-.19v-0.25l0.37-1.91,0.06-1.6,0.06-.06V263.6L184,261.69l0.68-.86-0.06-.12H184.6v-0.12l-0.55-.92,0.55-1.17a0.25,0.25,0,0,1,.12-0.25l0.12-.37-0.12-1-0.19-.06v-1a0.55,0.55,0,0,1,.06-0.25L184.42,254h0.12v-0.12l-0.12-.06,0.12-2-0.06-.06v-0.74l0.12-.43-0.06-1.11-0.12-.43,0.12-.31-0.06-1.6-0.06-.06,0.06-.06v-0.37l-0.06-.06v-1l-0.06-.25v-0.8l-0.12-2.47h0.25a0.05,0.05,0,0,1,.06-0.06l-0.31-.12,0.19-3.14-0.49-1.6,0.68-2V235c0-.12-0.08-0.27-0.12-0.43a1.37,1.37,0,0,1,.12-0.62l-0.18-8.82h0.18v-0.19l-0.18-.06v-0.43L184,219.27l0.68-1.11-0.68-.68,0.62-1.23v-0.43l0.06-.06-0.31-3,0.37,0.06v-0.06l-0.37-.18v-1.79Z" transform="translate(-139.47 -205.52)"/><path d="M213,207.31h0.43l3.08,0.19,0.25-.25q9.56-.49,9.56.8l-0.19.25v0.25q0.43,0,1.29,10.17l0.92,3.21v0.25l-0.25.25L229,232.53V233l-0.19.25,2.71,12.27V246l-0.19.25v0.25a25.58,25.58,0,0,1,1.29,7.27l0.25,0.25v0.25l-0.25.25,0.25,0.25,0.06,0.74-0.25.25V256q0.49,0,1.11,4.19h-0.25a17,17,0,0,1,1,5.06l0.25-.06-0.06-3.33,0.37-.74v-0.49L235,259.9l0.19-1.23-0.06-3.45-0.19-1,0.19-1v2.34l-0.25-1,0.19-.74-0.19-.74H235l-0.19-.25,0.19-1.23v-2.47l0.25-.25-0.25-.25v-0.49l0.19-1.23-0.19-.74,0.55-12.08-0.25-.25,0.25-1.23-0.06-4.93,0.12-5.92-0.19-1h0.19l-0.19-.74,0.19-.74-0.19-1,0.12-2-0.18-.25,0.37-5.67H236l-0.25-.25v-0.49q0-2.22,1.54-2.22H241l3,0.19,1.48-.49q1.11,0.31,1.11.68v0.74l-0.25.25,0.25,0.25v1.73l-0.25.25,0.25,0.25,0.06,1.23-0.25,1.23,0.25,1.48-0.25,1.48,0.25,0.25v0.25l-0.25.25v0.25l0.25,0.25v0.25l-0.18.25v0.25l0.43,1-0.43,2.22,0.18,1.23-0.12,1.73,0.19,0.74-0.43.49v0.25l0.25-.25h0.19l-0.19,1.23v2.71a5.87,5.87,0,0,1-.43,2.77l0.49,0.43v0.25l-0.49,2.28,0.25,0.18q-0.12,2-.37,2l0.19,0.25V239l-0.19,1,0.43,2.4-0.37,2,0.19,0.25v0.25l-0.19.25v0.25l0.19,1-0.19.25,0.43,1.17-0.19.8,0.25,0.19V249l-0.43,1.79,0.19,1-0.19,2,0.19,0.74q-0.12,2-.37,2l0.19,1.23v1.73l-0.37,3.95,0.25,0.74-0.43,4.93,0.25,2.22-0.25,1,0.25,0.25L245.58,275v3.45l0.31,1.23-0.25,1.48,0.06,5.67-0.43.49,0.25,0.25v0.49l-0.25.25,0.25,0.25L245.27,291l0.06,0.25,0.19,1.48-0.19,1v0.49h0.19L245.33,296l0.06,1.73-0.19,7.15,0.25,0.25-0.25,1.23,0.06,5.67q0,1.42-1.79,1.48l-10,.31h-1q-0.86,0-3.45-19.17l0.25-.25v-0.25q-0.92-2.77-2.16-14.36l-1-4.32-0.19-.18v-0.49l0.19-.31V274.2l-0.43-.43,0.25-.25v-0.25q-3.21-21.15-3.27-23.67l0.25-.25-0.25-.25h-0.19l0.06,2.47-0.25,2,0.25-1.17v2.47l-0.19.25,0.19,0.25q-0.43,4.19-.31,18.93l-0.25.25,0.25,0.25L222,276.54l0.06,2.59-0.06,8-0.25.25,0.25,0.25h-0.25l0.25,0.25-0.25,1.23,0.06,3.7-0.25.25,0.25,0.25v3.45l-0.25.25,0.25,0.25-0.12,7.89v2.71l-0.25,1,0.31,1q0,3.88-.86,3.88l-0.25-.74h-0.25c0,0.49-.14.74-0.43,0.74l-6.91.12-1.54.25a7.74,7.74,0,0,1-.68-3.88l0.19-1-0.25-.25v-0.25L211,307l-0.25-.25,0.25-1.23-0.06-4.44,0.19-.25-0.19-.25,0.19-1.23v-1.73l0.19-.25-0.25-.25v-2.22l0.25-.25-0.25-.25,0.25-1.23-0.06-7.4,0.18-2.77-0.25-.19,0.25-2.53-0.06-3.45-0.25-.68,0.25-1.29-0.06-6.66,0.43-.49-0.19-.25,0.12-2.47v-1.73l-0.19-1,0.37-3.45-0.25-1.73L211.54,251l0.25-.25-0.25-.25,0.19-2.47v-1.73a65.38,65.38,0,0,1,.37-10.11v-0.49h-0.25L212,229l-0.12-14.55,0.18-.25-0.18-.25v-0.25l0.18-1-0.18-.25v-0.25l0.37-2.47-0.19-.25v-0.25Q212.35,207.31,213,207.31Z" transform="translate(-139.47 -205.52)"/><path d="M277.39,265.08h-1.85v0.25h-0.25v0.25H274.8a1.18,1.18,0,0,0-.06-0.37h-0.06q-1.29-.19-1.29-0.68v-2.59l0.06-.31L273.2,256H272.7v-1h0.74v-0.25l-0.25-.25v-0.25l0.25-.25h0.25l0.43,0.31,0.12-.12,1-.06,0.92,0.74a0.94,0.94,0,0,0-.12-0.74h4.87l0.19,0.25,0.74-.25,0.25,0.25,1.79-.25,1-.06,1,0.49,0.25-.25h0.12l0.12-.18h0.25l0.25-.25,0.86,0.43h0.12l0.25-.68a6.27,6.27,0,0,0,1,.68H290l0.49,0.43,0.25-.25h0.43l0.25,1.17,0.43,0.19a2.26,2.26,0,0,1-.37,1v0.74q0,3-.49,3l0.25,0.25,0.06,4.5-0.25,1,0.25,0.68-0.25.25,0.25,1-0.19,1.66,0.25,3.08v0.68l-0.25,1,0.25,0.92-0.43,7.71,0.25,0.25h0.25l-0.25.25v2.59l-0.25,1,0.25,0.25L291,288.75v4.32l-0.25.19L291,293.5v0.74a0.88,0.88,0,0,0-.49.12,6.17,6.17,0,0,1-.06.86,0.88,0.88,0,0,0,.12-0.49H291l-0.19,1.17,0.25,2.34q0,1.23-.49,1.23l0.25,0.25v0.43l-0.19,1.23-0.37-1v2.34l-0.25.25,0.25,0.25-0.56.06-0.86.92a21.59,21.59,0,0,1-1.54,3.45v0.49a1.18,1.18,0,0,0-.37.06l-0.43,1a0.8,0.8,0,0,0-.37-0.19,2.15,2.15,0,0,0-.31.62q-4.87,4.69-8.26,4.69,0,0.49-1.73.49h-1l-1-.25-0.25.25a9.51,9.51,0,0,1-4.69-1.23l-0.25.25q0-.37-3.45-2.22L263,308.85a28.75,28.75,0,0,1-4.19-14.3l0.25-.25v-0.25l-0.25-.25,0.25-1.23v-6.9l0.25-1.48L258.77,283l0.49-3H259l0.49-1.48H259l0.25-.25v-0.49L259,276.3l0.25-1-0.25-.74,0.49-.49-0.25-.25H259q0.18-2.22.49-2.22l-0.25-.25v-4.44l0.25-2.22-0.25-.25v-0.25l0.25-.74-0.25-.25V263l0.25-.25v-0.25l-0.25-.74,0.49-.49-0.25-2.71h0.25l-0.25-.25V258l0.25-1-0.25-.74,0.49-3-0.49-2.47,0.25-.25V250.4l-0.25-.25,0.25-.74-0.49-3,0.74-2.71V243.5h-0.49l0.25-.25V242l-0.25-.25L260,241l-0.25-.25V240l0.25-2-0.25-1.48,0.25-2.22-0.25-.25H260l-0.25-.25v-0.25l0.49-.49-0.74-4.69,0.49-4.19-0.25-1,0.49-.49-0.25-1,0.25-.25L260,221.3q0.86-.37,1.73-5.18,0.49,0,.49-1.48,0.8,0,1.48-2.47l0.74,0.49v-0.49l-0.25-.25,1.73-2.71h0.25l0.25,0.25h0.25q0.12-1.35,4.44-3.21l0.74-.49,0.25,0.25h0.25l1.23-.49,1.48,0.74v-0.49h0.49v0.49l1.73-.25h0.49q0.49,0,.49,1,0.49,0,.49-1h0.49v0.74l0.25-.25h0.25l0.25,0.25h0.25l0.25-.25L281,207l0.25-.25q1.48,0.25,3.33,2.47l0.25-.25H285q0.43,0,.74,1.48,0.49,0,.49.74h0.25l0.25-.25H287v0.25l-0.25.74H287a2.31,2.31,0,0,1,1.48,1.23l-0.25.74h0.25q0.68,0,1,2.47c0,0.33.25,0.49,0.74,0.49v1.48l0.25,1.73-0.25.25q1,0,1,5.43v6.41l-0.49.74h0.49v0.49l-0.25.25,0.25,0.25v5.43l0.25,0.25q0,3.7-2.47,3.7h-0.49l-1-.25-0.25.25L286,243h-0.25l-4.56.25-0.74-.25-0.62-.25,0.25-.25v-0.25l-0.25-.25,0.25-.25h-0.25l-0.25.25,0.25-1.23v-0.49l-0.49-1.48,0.25-1-0.25-.25h0.49l-0.25-1.23v-4.93l0.25-1.48h-0.49l0.25-.25v-2l0.25-.25-0.25-.25v-0.49l0.25-1.23a1.35,1.35,0,0,1-.74-1.48l0.25-1v-0.25h-0.25v0.49l-0.49-.62v-1.48q-1.17-2.71-1.6-2.71,0.49-.86-0.25-0.86h-1l-1.66.43a1.41,1.41,0,0,1-1.17.31,22.09,22.09,0,0,1-1.6,5.92h0.25l-0.49,3,0.25,1v0.25l-0.49.74v0.74h0.49l-0.49,4.93,0.49,4.44-0.25.74,0.25,0.25v0.25l-0.49,1.23L271.1,242v0.25l-0.49.74v0.25l0.25-.25h0.25v0.49L270.85,245l0.25,0.25L270.85,247v1.48l-0.25.25,0.25,0.25v2.22l0.25,3c-0.33,0-.49.25-0.49,0.74l0.49,1.23h-0.49l0.25,2.71-0.49,3.7,0.25,0.74-0.25.25h0.25l0.25-.25v0.49l-0.25,3.45,0.25,1-0.25.74,0.25,0.25h-0.25l0.25,0.74-0.25,1.23,0.25,0.74-0.25,2,0.25,0.74-0.25,1,0.25,1.23L270.61,279v2l0.25,2-0.25,2v1.48l0.25,1-0.25,1,0.25,2.71-0.25,3.21v0.49q1.17,6,2.1,6a5.05,5.05,0,0,0,1.54,2l0.18-.19,0.25,0.25q0-.37,2.59-1.23a1,1,0,0,1,1.11-.92,9.19,9.19,0,0,0,.86-1.91,18.94,18.94,0,0,0,.37-3.95h0.25l-0.12,1,0.06,0.06q0.06-.49.12-1.36l-0.06-.31v-0.49l0.06-.06v-0.37l-0.06-.06v-0.49l0.06-.43,0.12-1-0.12-.25h-0.06l0.06-.06v-0.31l0.19-.18v-0.12l-0.19-.12,0.12-3-0.19-1.91,0.25-.62v-1.66l0.06-.06,0.06-.31,0.12-.31,0.37-17-1.36-.55-0.55.06,0.37,0.25q-0.86,0-1.48-.06A1,1,0,0,0,277.39,265.08ZM260,251.33v-0.25l-0.19-.68h-0.25v0.25l0.19,0.68H260Zm0.31,21.7v-0.25l-0.25-.25-0.49.49h0.74Zm0.06-6V266.8l-0.49-.43h-0.25ZM260.5,253v-0.19l-0.49-.06v-0.43l0.25-.25H260l-0.25-.25v0.92L260,253h0.49Zm-0.06,7.89,0.19,0.25,0.06-1h-0.25l-0.25.74h0.25Zm0.31,14.73H261v-0.43l-0.68-.06Zm0,1.66v-0.92H260.5v0.92h0.25Zm0.31-9,0.25-.74-0.49-.49h-0.18l0.18,0.74V268l-0.25.25h0.49Zm0.49,2.34,0.18,0.25q0,0.74.49,0.74l-0.25-1q-1.17-.49-1.17-0.92h-0.25v1.42h0.25v-0.49h0.74Zm0.31-8.82v-0.18l-0.74.18v0.25l0.25,0.25Zm-0.31,5.06v-0.25l-0.25-1.23h-0.18v0.25l0.18,1.17Zm-0.19-8.63,0.25,0.25h0.25l-0.25-1.17h-0.19l-0.25.92h0.19Zm0.86,10.3,0.06-.49H262l-0.49.49h0.68Zm-0.06-16v-0.25l-0.49-.49v0.25Zm0.19,4.5,0.25-.25-0.49-.43v0.68h0.25Zm0.25-2.59v-0.74h-0.19l-0.25.25ZM263,290.42c-0.33,0-.49-0.25-0.49-0.74h-0.25v0.49l0.25,0.74Zm0.06-11.65,0.25,0.25,0.06-1.66h-0.25l-0.25,1.42h0.19Zm0.74,1.17,0.25-.68h-1l0.25,0.68h0.49Zm-0.25,2.16V281.6l-0.25-.25v-0.25l0.25-.19h-0.25l-0.25.19,0.25,1h0.25Zm0-30.21v-1h-0.25v0.92Zm0.74-1.48-0.25-.92h-0.25v0.25Q263.82,250.41,264.32,250.4ZM265.8,274v-0.25l-1.66-1h-0.25v1ZM266,255.71v-0.49l-0.25-.74h-1.48v0.25l1.48,1H266Zm0.12,36.62h0.25l-0.43-1.42h-0.25l-0.25.74Zm-0.37-10.91,0.25-.25-0.49-.49v0.74h0.25Zm0.49-27.62v-0.74h-0.49v0.25Zm0.12,14.3V267.6l-0.25-1h-0.25v0.25l0.25,1.17Zm0.25,27.37v-0.25h-0.49v0.68Zm0.49-22.19,0.06-.25-0.49-.49h-0.25v0.74h0.68ZM266.78,283l0.25-.25-0.49-.49V283h0.25Zm0.31,18.13,0.25-.74v-0.49l-0.68.74Zm0.37-10-0.25-1.17H267l-0.25.25Zm-0.19-10.42-0.19-1.23h-0.25v1.17Zm0,26.39v-0.49l-0.43-.43v0.43Zm0.49-1.42V305.4h-0.43l-0.06.74Zm-0.12-40.44,0.06-1.23h-0.25v1.23h0.18Zm0.62,15v-0.25l-0.49-.49,0.49-1.17H268l-0.25-.25-0.25,1.17Zm0.06-6.91-0.25-1.17h-0.25l-0.25.92Zm-0.12,13.07-0.25-.68h-0.25v0.68h0.49Zm0.12-11.41V274l-0.25-.06v1h0.25Zm0.31,16v-1h-0.25v1h0.25Zm1,17.88-0.25-1.48-0.49.49V308Zm0.25-3.14V305h-0.49v0.68h0.49Zm1.42,1.73v-1l-0.49.49Zm0.74-2.9,0.25-1.42v-0.43l-0.25-.06a0.63,0.63,0,0,1-.68.74l-0.06.49Zm1.11,6.47,0.25-.25-0.19-1.17H273l-0.06,1.42h0.25Zm0.25-1.66,0.25-.74v-0.25H273.5l-0.25.25v0.74h0.19Zm0.56-3.82v-0.25l-0.49-.49v0.74H274Zm0.31,6.54-0.25.74h0.25l0.25-.25V312h-0.25Zm2.16-1v1h0.25v-1h-0.25Zm3.51-7.65,0.19-.25-1.91-.68,1.23,0.92H280Zm-1,6v-0.49l-0.25-.25,0.49-.49v-0.25l-0.25-.18-0.43.43,0.18,1.23h0.25Zm0.92,1.66,0.25-.25,0.25,0.25h0.25v-1H280.1v0.49h-0.43l-0.25-.25V311h0.43Zm1.54-7.4-1.23-.92h-0.25l1.23,0.92h0.25Zm-0.74,4.07-0.25-.25q0-1.42.68-1.42l0.06-.49-1.23.74,0.25,1.42h0.49Zm-0.25-7.89,0.49-.43v-0.25h-0.49l-0.25.68h0.25Zm0.92-17.51-0.49-.49-0.25,1V283Zm0.55,13.5v-0.25l-0.25-.25-0.49.49h0.74Zm0.43,3.82v-0.49l-0.25-.25h-0.25l0.25,0.74h0.25ZM282,309.1l0.25-.68h-0.43v0.68H282Zm0.62-14.18v-1.17h-0.25l-0.49,1.17h0.74Zm1.29-12.39h0.25v-0.25l-0.49-.43h-0.25v0.25Zm1.66,4.32-1.48-1.17-0.43-.06Q283.8,286.84,285.59,286.84Zm-1.42,21.58-0.19-.74h-0.25v0.74h0.43Zm2.4-23.92v-0.25q-0.25-1-2.4-1.23h-0.25l0.25,1.17,1.42,0.06,0.25-.25h0.49v0.49h0.25Zm-0.49.68-1.91-.25-0.06.49,1.48,0.25Zm-0.92,19.67-0.43-.49h-0.25v0.49h0.68Zm0,2.16-0.25-1.42h-0.25V307h0.49Zm1.36-18.25-0.19-1.66h-0.49l-0.25.74Zm-0.43-6.41h0.25v-0.49h-0.68Zm0.12,13.56,0.06-1.67h-0.49L286,295.9h0.19Zm0.43,7.52v-0.49c-0.33,0-.49-0.23-0.49-0.68H285.9v0.43Zm0.12-11.1-0.25-.92h-0.25v0.92h0.49Zm0.12,8.75v-0.25l-0.49.43v0.25Zm0.25-4.81h0.25v-0.92l-0.68.49Zm0,1.48V297h-0.25l-0.18.25Zm0.92,2.1v-0.68q0.06-.74-0.43-0.74h-0.25l0.43,1.42h0.25Zm0.31-3.76v-0.25l-0.25-1.42h-0.49l0.49,1.66h0.25Zm0.06-7.52h0.25v-0.25l-0.49-.49-0.43.49Zm-0.06,6.84,0.25,0.06-0.49-.49h-0.19Zm0.12-9.25L288.24,285H288v0.68Z"     transform="translate(-139.47 -205.52)"/><path d="M305.75,207.06l3.7,0.12,0.74-.25,0.25,0.74h0.25l0.49-.55,0.25,0.25h0.25l0.74-.49h0.25l0.25,0.25,0.25,0.74q1-.06,1,1.17l0.06,0.74-0.25,1,0.25,1,0.06,1.73-0.25.25,0.25,0.25-0.18,1.23v0.49h0.25l-0.25,1.23L314.32,229l-0.25.25,0.25,0.25v0.25l-0.19.25,0.25,0.25v0.49l-0.49.06v-0.74h-0.25v1l0.74,1.17-0.86,4.25V237H314l0.12,5.92-0.25,1,0.31,1V246l-0.25.31,0.25,0.68L314,249.29l0.25,0.19-0.18,1.29V251l0.25,2.16-0.19,1,0.25,0.19-0.43,2.28,0.25,0.25v1.48l-0.37,4.93,0.25,1-0.25.74,0.31,0.25-0.49.49,0.49,0.49-0.25,1.23,0.12,4.93-0.25,1.23,0.31,1.48,0.06,3.95-0.68,1,0.49,1v14.06l-0.25-.49,0.25,0.25v0.25l-0.25-.37V295l0.31,1.48h-0.25l0.25,0.25-0.43,4.44,3.7,0.19-3.21.06,1,0.19,1-.25h0.49l0.25,0.25,0.25-.25,1-.06,5.92,0.18,1.23-.49q0,0.43,2.28.68l0.12,6.41L327.08,307l0.49,0.49-0.25,1.23,0.31,1.23q-0.18,3.27-.68,3.7l-3-.19-3.45.06-1-.25-1,.31h-1l-0.74-.49-0.49.49h-0.25l-0.25-.19-0.25.25-6.9-.49-0.25-.25-1.23.49v-0.25l-0.25.31h-0.25l-0.25-.25h-0.25l-0.25.25-1.23-.25-1.73.31-0.49-.74,0.49-.74-0.56-.43v-2.1l0.43-.8-0.49-.68v-1.48l0.19-.31-0.25-.19v-2l0.43-.8v-0.25l-0.49-.43,0.25-1.79L302.42,297l0.49-2-0.31-.25-0.25.06,0.25-1.29-0.06-4.19,0.43-.49-0.55-3.7,0.49-1-0.25-.25-0.06-1.48,0.25-1-0.49-.74,0.19-1.23-0.12-5.92,0.49-.74v-0.49l-0.49-.74-0.12-3.7,0.49-.74-0.06-3.45,0.49-.74-0.56-.74,0.49-.74-0.49-.49,0.49-1.48-0.55-.49v-1.73l0.49-.74-0.55-.49v-0.49l1-1.48v-0.25l-0.74.49-0.25-.25,0.25-.25-0.12-3.45,0.49-.74-0.74-.49,0.62-4.44c-0.33,0-.49-0.25-0.49-0.74l0.12-7.65h0.25l-0.25-.25-0.06-1.48h0.74v-0.25q0-.49-0.74-0.49l-0.06-1,0.25-.25-0.25-.25,0.18-2.47-0.06-4.19,0.25-1-0.31-1v-1l0.19-3.7-0.31-1.73h0.25l-0.25-.25v-0.25l0.25-.25-0.31-1.73v-0.25q0.12-1.48.74-1.48l-0.25-.25-0.06-.74,0.25-.25-0.25-.25-0.06-3.45,0.74-.74h0.74l1.23,0.18,0.25-.25v-0.25Z" transform="translate(-139.47 -205.52)"/><path d="M339,206.69l1.48,0.43,2-.25,0.74,0.25,0.25-.31v-0.25l2,0.49,0.49-.49,1.73,0.43,3.95-.31h1l1.48,0.18,0.25-.25q5.3,0.19,5.3,1.11v0.49l-0.43.74,0.49,0.49,0.12,9.12q0,0.62-1.91,1l-0.31-.25-1.17.31h-1.23l-2-.19-0.06.25-0.49.06-0.31-.25H352q0.06,0.74-.92.74l1.6-.43-3,.06a1.31,1.31,0,0,0-1.48,1.48l0.25,2.59-0.25.25,0.06,0.74h0.25l-0.25,1.73,0.06,0.12,0.31,1L348.16,230l0.25,0.25,0.06,1-0.25.25v0.25l0.25,0.25h0.25l-0.8-2.22V230l0.31,1.73H348l0.25,0.25-0.43,2.47,0.49,2.22-0.43.49v1.23l0.25,1.48-0.25.25,0.06-3h0.25l-0.19,3v1.6l0.31,1.73h0.49v-0.25l3,0.43,0.25-.25,7.52,0.37,1,1-0.19,1.48,0.25,0.25-0.19,2.47v3.58L360.13,249l0.25,3.33-0.19,1.23v2a1.23,1.23,0,0,1-1.42.74l-2.71.06-1-.25-1.54.37-0.74.06-0.31-.25-0.19.25-4.44.06-0.25,1,0.25,0.25v0.74l-0.25.74,0.06,0.49h0.25l-0.19,6.66L348,281l-0.25.25,0.25,0.25,0.06,4.19-0.49.49,0.25,0.25V287l-0.19,1.48,0.25,0.25-0.25-1.85,0.12,6.9-0.18,1.48,0.25,0.25-0.25,1.23,0.06,3.45,1.73-.25,2-.06,1.23,0.25,0.74-.25,1,0.12,0.74-.06,1-.25q3,0.18,3,.68l0.12,6.54,0.25,1.23-0.25.25,0.06,3.21-0.43.49L359,312.3v0.25q0,0.49-.74.49l-4.56-.12-0.74.25v-0.25l-0.25.25-1.23-.19-5.67.12-3,.31v-0.25l-0.25.25-1.48-.25-2.47.31-0.25-.25h-0.25l-1,.25-1,.06-0.49-.49-0.19-10.36,0.12-3.95-0.25-.74,0.55-10.11-0.25-.25,0.19-1.23-0.37-19.73,0.25-1-0.31-1,0.49-.74-0.49-.49v-0.74l0.43-.74-0.06-5.67,0.25-.25-0.31-.25-0.06-3.7,0.25-1-0.25-.25,0.19-2-0.25-1.73,0.25-.25v-0.25l-0.31-1,0.19-2.47-0.25-1.73,0.19-1.48-0.25-.25,0.25-1.23-0.06-2.71,0.25-.25-0.25-.25,0.43-3-0.25-1.23,0.19-1-0.25-.74,0.31,2.71L336,229.94l-0.49-1.48,0.25-.25H336l-0.25-.25,0.37-3.7-0.25-.25h-0.25l0.18-2.47v-0.49l-0.25-1.48,0.49-.74-0.31-.74,0.25-1-0.49-1.48q0.49,0,.43-0.74l-0.25-.74,0.25-.25h0.25l-0.25-.25v-1l0.25-.25-0.31-.25v-0.25q0.12-3.21.43-3.21l-0.25-.25V208l1-1q0.49-.06.49,0.68h0.25Q337.75,207,339,206.69Z" transform="translate(-139.47 -205.52)"/><path d="M398.41,207.25l1.23,0.25h5.18l1.23-.25,1.48,0.25h8.88l0.25,0.25,0.25-.25h2.71l0.25,0.25,0.25-.25h0.25q1.48,0,1.48,1.73l0.25,1.23-0.49,2,0.49,1.23-0.25.25v1l-0.49.74,0.49,0.74v3l-0.74.74-0.25-.25h-0.25l-1.23.25,0.25-.25v-0.25h-0.49v0.74l-1.23-.25v-1.48H417.4q0,1.73-1,1.73h-0.25l0.25-.25v-0.25l-0.25.25h-2l-1.23.25v-0.49l3.21,0.49-1.48-.49-0.25.25v0.25l-0.86-.25h-0.74l-1.48.25-1-.25-0.25.25-1.23-.25q-1.73,0-1.73,1l-0.25,1,0.25,0.25v0.25l-0.25.25V223l0.25,0.25L406.67,226l0.49,2.47-0.49,3.45,0.49,2-0.49,1.48,0.25,0.25v0.49l-0.25.74,0.25,1.23v0.74l-0.25,1,0.25,0.25v0.25l-0.25.74,0.25,1.23-0.25,2.34,0.25,3h-0.25a1.16,1.16,0,0,0,1.23,1v-0.25l0.25,0.25,2.47-.25q1.23,0.06,1.23.49l0.25-.25h1.6l0.25,0.25h0.25v-0.49l0.86,0.25,1.23-.25L417,248.8l3.45-.49,0.25,0.25,0.25-.25,0.74,0.74-0.25.25v0.25l0.25,1.73h-0.25l0.25,0.25v0.25l-0.25.86,0.25,0.25v0.25l-0.25.25v0.25l0.25,1.48h-0.25l0.25,0.25v1l-0.25.25,0.25,0.25v0.25l-0.25-1,0.25,0.74L421.47,258l0.25,1L421,261.5h-1.73l-0.74-.25-1.23.25h-7.4l-1,.25-1-.25h-1L406.67,263l0.25,0.25v0.25l-0.25,1h0.25l-0.25.74,0.25,1-0.25,2.22v1.48l0.25,1-0.25,5.92v1l0.25,1-0.25.25v0.25l0.25,0.74-0.25.25v0.49h0.25l-0.25,3.7v5.18l0.25,2-0.25,2v4.19l0.25,0.25-0.25.25v3.7l0.25,0.25-0.25.25v2.22l-0.25,1.48,0.25,0.74-0.25,2.71,0.25,0.74q0,1-2.22,1.48l-2.47-.49-0.12.25v-0.25l-0.25.25h-2l-0.25-.25a0.65,0.65,0,0,0-.74.74h-0.25v-0.49h-1.73l-0.25-.25h-0.25l-0.25.25v-0.25l-0.25.25h-1.23l-0.25-1.23h0.25L394,308.11l0.49-3-0.25-1.48V300l0.25-.25-0.25-.25v-0.25l0.25-1.48-0.25-.74,0.25-.74-0.25-.74,0.25-.25V295l-0.25-.74,0.25-.74-0.25-.74,0.25-2-0.25-.74,0.25-.25-0.25-1,0.25-4.69h-0.25l0.25-.25V283.7L394.22,282l0.25-.25h-0.25l0.25-.25v-1.23l-0.25-.25,0.25-.25V279l-0.25-.74,0.25-1.23v-3.95l-0.25-3.45,0.25-1.23-0.25-.25v-0.25l0.25-1h-0.25l0.49-2.22-0.25-1,0.25-2.22h-0.25l0.25-.25V261l-0.25-1.73,0.25-.25v-0.25l-0.25-1,0.25-1.23-0.49-4.19,0.49-2.47-0.25-.25v-0.25l0.25-1-0.25-2.71v-1l0.25-.25-0.25-.25V244l0.25-2.22h-0.25l0.25-.25-0.25-.74,0.25-5.18-0.25-1.73,0.25-.74-0.25-1.73,0.25-.25v-0.25l-0.25-.25v-0.25l0.25-1-0.25-.25,0.25-.25V228.7l-0.25-.74,0.25-1.23V225l-0.25-.25,0.25-.25v-4.69l-0.25-1,0.49-3-0.25-.25H395l-0.49-1.73,0.49-1.48-0.25-2.22v-2.47Zm0.49,38.84v0.25l0.49-.49V245.6Zm20.59,6.66V253l0.49,0.49v-0.74H419.5Zm0.74,3.21v0.74l0.49-.49V256h-0.49Z" transform="translate(-139.47 -205.52)"/><path d="M433.74,206.69l1.48,0.43,2-.25,0.74,0.25,0.25-.31v-0.25l2,0.49,0.49-.49,1.73,0.43,3.95-.31h1l1.48,0.18,0.25-.25q5.3,0.19,5.3,1.11v0.49l-0.43.74,0.49,0.49,0.12,9.12q0,0.62-1.91,1l-0.31-.25-1.17.31h-1.23l-2-.19-0.06.25-0.49.06-0.31-.25h-0.25q0.06,0.74-.92.74l1.6-.43-3,.06a1.31,1.31,0,0,0-1.48,1.48l0.25,2.59-0.25.25,0.06,0.74h0.25L443,226.67l0.06,0.12,0.31,1L442.92,230l0.25,0.25,0.06,1-0.25.25v0.25l0.25,0.25h0.25l-0.8-2.22V230l0.31,1.73h-0.25L443,232l-0.43,2.47,0.49,2.22-0.43.49v1.23l0.25,1.48-0.25.25,0.06-3h0.25l-0.19,3v1.6l0.31,1.73h0.49v-0.25l3,0.43,0.25-.25,7.52,0.37,1,1-0.19,1.48,0.25,0.25-0.19,2.47v3.58L454.88,249l0.25,3.33-0.19,1.23v2a1.23,1.23,0,0,1-1.42.74l-2.71.06-1-.25-1.54.37-0.74.06-0.31-.25-0.19.25-4.44.06-0.25,1,0.25,0.25v0.74l-0.25.74,0.06,0.49h0.25l-0.19,6.66L442.74,281l-0.25.25,0.25,0.25,0.06,4.19-0.49.49,0.25,0.25V287l-0.19,1.48,0.25,0.25-0.25-1.85,0.12,6.9-0.18,1.48,0.25,0.25-0.25,1.23,0.06,3.45,1.73-.25,2-.06,1.23,0.25,0.74-.25,1,0.12,0.74-.06,1-.25q3,0.18,3,.68l0.12,6.54,0.25,1.23-0.25.25,0.06,3.21-0.43.49,0.25,0.25v0.25q0,0.49-.74.49l-4.56-.12-0.74.25v-0.25l-0.25.25-1.23-.19-5.67.12-3,.31v-0.25l-0.25.25-1.48-.25-2.47.31-0.25-.25h-0.25l-1,.25-1,.06-0.49-.49-0.19-10.36,0.12-3.95L430.1,298l0.55-10.11-0.25-.25,0.19-1.23-0.37-19.73,0.25-1-0.31-1,0.49-.74-0.49-.49v-0.74l0.43-.74-0.06-5.67,0.25-.25-0.31-.25-0.06-3.7,0.25-1-0.25-.25,0.19-2-0.25-1.73,0.25-.25v-0.25l-0.31-1,0.19-2.47-0.25-1.73,0.19-1.48-0.25-.25,0.25-1.23-0.06-2.71,0.25-.25-0.25-.25,0.43-3-0.25-1.23,0.19-1-0.25-.74,0.31,2.71-0.06-2.22-0.49-1.48,0.25-.25h0.25l-0.25-.25,0.37-3.7-0.25-.25h-0.25l0.18-2.47v-0.49l-0.25-1.48,0.49-.74-0.31-.74,0.25-1-0.49-1.48q0.49,0,.43-0.74l-0.25-.74,0.25-.25h0.25l-0.25-.25v-1l0.25-.25-0.31-.25v-0.25q0.12-3.21.43-3.21l-0.25-.25V208l1-1q0.49-.06.49,0.68h0.25Q432.5,207,433.74,206.69Z" transform="translate(-139.47 -205.52)"/><path d="M487.62,306.32v0.12l-0.18,1.11v-0.12q-0.12.68-.25,1.42V309q-0.25,1.6-.49,3.7h-0.92v0.06q-0.74.68-9.93,0.62h-1.48a4.21,4.21,0,0,0-.06-0.68h-1.42l0.19-.19q-0.31,0-1.73-15.72-0.25-4.93-.62-4.93l-0.12-1.48,0.19-.25-0.25-.25-0.06-.8,0.12-1.48-0.86-3.39H470l0.12-.74-0.19-.25,0.06-1-0.25-.74h0.19l-0.25-1.73v-0.25l0.06-1.48-0.25-.74v-2l0.06-.25h-0.19l-0.25.25-0.62-3-0.68-8.88-0.25-1.29L468,262l-0.62-2.9,0.12-1-0.31-1v-0.25l0.18-.25-0.74-4.19q0.43-.06.31-1.79l-0.06-1-0.25-.31,0.25-.25-0.62-1.91,0.12-1L466.35,245l-0.55-1.48q0.43,0,.37-1.29L466,240.48l-0.62-2.22h0.43l-0.31-1.73,0.06-.25,0.06-1.29h-0.19l-0.49-.43,0.49-2-0.49-.68,0.43-.06-0.31-1.23-0.06-5-0.37-1.17v-0.25l0.25-.06,0.06,0.74h0.25l-0.06-.49v-0.74q-0.19-1.66-.31-3.39-0.43-5.61-.92-11.53l0.31-.37V208h0.12v-0.12a0.93,0.93,0,0,1,.49-0.55v-0.06h0.18a2.32,2.32,0,0,1,.56-0.06q3.82,0,5.92.12a3.51,3.51,0,0,1,.68.06,5.37,5.37,0,0,1,1.17.19l0.74-.12a2.19,2.19,0,0,1,.06.62l0.43-.25q0.43,6.1.8,11.71l0.12-.06-0.06.06q0.12,2,.25,4l0.06,0.25-0.06-.06q2.65,31.07,3.64,42.6,0.37,4.25.74,8.75l0.31-1,0.12-1.73q0.12-1.29-.31-1.29l0.62-1.42,0.06-1.23-0.06-1,0.62-1.91-0.19-.25,0.25-.31,0.06-1q0.18-1.66-.25-1.73l0.8-4.19L482,257.8v-0.25l0.31-1-0.06-1,0.49-2.16a4.56,4.56,0,0,0,.06-0.74l-0.31-.06,0.31-1.29,0.92-8.88,0.06-3,0.19,0.25,0.19,0.06v-2.34l0.31-.68-0.06-1.48,0.06-.25,0.31-1.73H484.6l0.25-.74-0.06-1,0.19-.25-0.06-.74h-0.25l0.86-3c0-.25.08-0.47,0.12-0.68l-0.12-1.17,0.12-.8,0.19-.25-0.19-.25,0.19-1.48a0.53,0.53,0,0,0,.25-0.43q0.68-6.29.86-13.32l0.55,0.12c0-.25.08-0.47,0.12-0.68l-0.12-.12h0.12a2.32,2.32,0,0,1,.25-0.8h6.72l0.49-.06,0.25-.19,0.19,0.06,0.06,0.06,0.19-.06h0.12l0.62,0.19v0.19a0.25,0.25,0,0,1,.19.06l1.17,0.06q-0.06,1.17-.74,8.75l0.12,0.56-0.31.55q-0.06.43-.12,0.8v0.49l-0.12.06a1.18,1.18,0,0,1-.06.37l-0.06.49h1q-0.74.25-.68,0.62l-0.43.43-0.06.86,0.12,0.43-0.25.43-0.06,1,0.19,0.25v0.25l-0.19-.25h-0.06v0.43l0.25,0.74,0.25,0.37-0.37,1.73-0.74,3.88,0.19,2.16-0.49.62q-0.25,2.34-.49,4.93l0.25,1-0.37.49q-0.06.74-.12,1.42V242l-0.68,7.27-0.06.06v0.31l0.06,0.12-0.06.25-0.06.25a3.15,3.15,0,0,0-.06.62l0.06,0.12-0.12.43a0.69,0.69,0,0,1-.06.31l0.25,0.06,0.06-.74h0.25l-0.06.25-0.37,1.17-0.8,5.06-0.37,1.17,0.43,0.06-0.49.68,0.49,2-0.55.43h-0.19l0.06,1.29v0.25l-0.37,1.73h0.43l-0.68,2.16L491.5,269q-0.12,1.29.31,1.36l-0.62,1.42L491.13,273l0.12,1-0.68,1.85v0.06l0.25,0.31-0.31.25a3.21,3.21,0,0,1-.06.62q-0.37,3.82-.74,7.83l0.12,1-0.37,1.6q-0.06.68-.12,1.29l0.25,0.06-0.37,1.23L488.36,299l-0.06,3-0.25-.31q-0.06,1-.18,2V304Q487.74,305.15,487.62,306.32ZM487.19,309l0.12,1-0.25.19,0.12,0.8h0.25v-2.59l-0.25.49V309Zm0.25-.8v-0.62l-0.12.62h0.12Zm0,0.19v-0.19h0.06Zm8.32-100.86,0.19-.06C496.11,207.43,496,207.45,495.76,207.49Z" transform="translate(-139.47 -205.52)"/><path d="M510.74,206.69l1.48,0.43,2-.25,0.74,0.25,0.25-.31v-0.25l2,0.49,0.49-.49,1.73,0.43,3.95-.31h1l1.48,0.18,0.25-.25q5.3,0.19,5.3,1.11v0.49l-0.43.74,0.49,0.49,0.12,9.12q0,0.62-1.91,1l-0.31-.25-1.17.31h-1.23l-2-.19-0.06.25-0.49.06-0.31-.25h-0.25q0.06,0.74-.92.74l1.6-.43-3,.06a1.31,1.31,0,0,0-1.48,1.48l0.25,2.59-0.25.25,0.06,0.74h0.25L520,226.67l0.06,0.12,0.31,1L519.93,230l0.25,0.25,0.06,1-0.25.25v0.25l0.25,0.25h0.25l-0.8-2.22V230l0.31,1.73h-0.25L520,232l-0.43,2.47,0.49,2.22-0.43.49v1.23l0.25,1.48-0.25.25,0.06-3h0.25l-0.19,3v1.6l0.31,1.73h0.49v-0.25l3,0.43,0.25-.25,7.52,0.37,1,1-0.19,1.48,0.25,0.25-0.19,2.47v3.58L531.89,249l0.25,3.33-0.19,1.23v2a1.23,1.23,0,0,1-1.42.74l-2.71.06-1-.25-1.54.37-0.74.06-0.31-.25-0.19.25-4.44.06-0.25,1,0.25,0.25v0.74l-0.25.74,0.06,0.49h0.25l-0.19,6.66L519.74,281l-0.25.25,0.25,0.25,0.06,4.19-0.49.49,0.25,0.25V287l-0.19,1.48,0.25,0.25-0.25-1.85,0.12,6.9-0.18,1.48,0.25,0.25-0.25,1.23,0.06,3.45,1.73-.25,2-.06,1.23,0.25,0.74-.25,1,0.12,0.74-.06,1-.25q3,0.18,3,.68l0.12,6.54,0.25,1.23-0.25.25,0.06,3.21-0.43.49,0.25,0.25v0.25q0,0.49-.74.49l-4.56-.12-0.74.25v-0.25l-0.25.25-1.23-.19-5.67.12-3,.31v-0.25l-0.25.25-1.48-.25-2.47.31-0.25-.25h-0.25l-1,.25-1,.06-0.49-.49-0.19-10.36,0.12-3.95L507.1,298l0.55-10.11-0.25-.25,0.19-1.23-0.37-19.73,0.25-1-0.31-1,0.49-.74-0.49-.49v-0.74l0.43-.74-0.06-5.67,0.25-.25-0.31-.25-0.06-3.7,0.25-1-0.25-.25,0.19-2-0.25-1.73,0.25-.25v-0.25l-0.31-1,0.19-2.47-0.25-1.73,0.19-1.48-0.25-.25,0.25-1.23-0.06-2.71,0.25-.25-0.25-.25,0.43-3-0.25-1.23,0.19-1-0.25-.74,0.31,2.71-0.06-2.22-0.49-1.48,0.25-.25h0.25l-0.25-.25,0.37-3.7L507.6,224h-0.25l0.18-2.47v-0.49l-0.25-1.48,0.49-.74-0.31-.74,0.25-1-0.49-1.48q0.49,0,.43-0.74l-0.25-.74,0.25-.25h0.25l-0.25-.25v-1l0.25-.25-0.31-.25v-0.25q0.12-3.21.43-3.21l-0.25-.25V208l1-1q0.49-.06.49,0.68h0.25Q509.51,207,510.74,206.69Z" transform="translate(-139.47 -205.52)"/><path d="M555.5,207.25l1.29,0.25h0.86l0.31-.25h0.25l0.12,0.74a3.28,3.28,0,0,1,1.11-.74,0.61,0.61,0,0,1,.62.74l0.74-.49h1.11l1.11,0.25,0.18-.25V208h0.31l0.12-.25h0.31q0,0.49,1.73.49a1.7,1.7,0,0,0,1.6.74q0,0.56,3.14,2.77a21.35,21.35,0,0,1,3.64,8.75l0.92,6-0.25.25V227l0.25,0.25v0.25l-0.25,1,0.25,0.25V229l-0.25.25,0.25,1-0.25,1.23,0.25,1.23-0.25.25v0.25l0.25,0.25v0.25l-0.25,1.54,0.25,0.25v0.25l-0.25.25,0.25,1.73v1.54l-0.25.25L575,239.8v0.74l-0.25.74,0.43,2.77-0.43,2.28,0.25,0.25q0,10-6.29,15.23,1.54,0,3.76,4a18,18,0,0,1,2.53,8.51h-0.25l0.25,0.25v13.56l-0.25,2.71,0.43,4L575,296.15v2q0,4.69.31,10h0.25l-0.25.25v0.25l0.25,1.23h-0.25l0.25,0.25v0.25l-0.25,1h0.25l-0.68,1.66-0.25-.19h-0.19v0.19l-0.25-.19-1,.19h-1.29l-0.92.31q-5.8,0-7-.74-0.43-6-.43-13.5V295.9l-0.31-.25,0.31-.25v-2l-0.31-.74,0.31-1.23v-2.53l0.12-.25-0.12-.25v-2.77l0.12-1-0.43-3,0.43-1.48-0.43-.49q0-.49.74-0.49v-0.25h-0.43v-4.32a8,8,0,0,0-2.34-5.24l-2.4-1.6v-0.25L558,268h-0.49l-0.31.25L557,268h-0.92l-0.19.25-0.31-.25h-0.68v3.64l0.25,1.48-0.43,2,0.19,0.25v4.25l0.25,0.25-0.25.25v0.49l0.25,1-0.25,1.79v2.71l0.25,2-0.25,2v1.29l0.25,1.48-0.25.74,0.25,0.25v0.25l-0.25,1,0.25,0.25v0.25h-0.25l0.25,0.25-0.25,1.23v0.49l0.25,1-0.25.8,0.25,0.25v0.25l-0.25,1,0.25,0.25-0.25,1.23,0.25,2.77-0.25.74,0.25,0.25v0.25l-0.43,1.79,0.19,2.22v1q0,1.29-.62,1.48h-3.14l-2.71.19v-0.19l-0.25.19H548l-0.68-.19-1.17.19h-2l-0.25-.19h-0.18l-0.25.19-0.43-.43v-0.25l0.18-.25L543,310.88V299.42l0.18-1-0.18-1,0.18-1.73H543l0.18-.25v-2h0.49v-0.49l-0.25.25H543v-4.25l0.18-2.28L543,284.13v-6.29l-0.25-2,0.25-2v-4.5l-0.25-1,0.43-2L543,265.08v-2l0.18-1.29L543,260.33V258.6h0.43L543,256.08l0.18-1.73-0.18-.8,0.18-.74-0.18-.25v-0.25l0.68-1.48q-0.68,0-.68-2l0.18-1-0.18-.25v-0.25l0.18-.74-0.18-.8,0.18-.25H543l0.18-.25V245L543,242.33h0.18l-0.18-.25v-1l0.68,0.49V241q-0.68,0-.68-1.23l0.43-2.53-0.25-.25,0.68-1.23v-0.25h-0.43q0,0.74-.43.74v-0.49l0.18-1.23-0.18-1,0.18-1L543,229.81v-0.55l0.18-1L543,228v-0.25l0.18-4-0.18-.25v-0.25l0.18-1V221.8l-0.18-1,0.43-1q-0.18-1.48-.43-1.48l0.18-.25v-0.49L543,215.26l0.18-.74-0.18-.25,0.18-.74h0.25L543,213l0.18-1.23L543,210.27h0.43V210H543v-0.49l0.18-.31L543,209v-0.49l0.86-1q1.17,0.12,1.17.74c0.29,0,.43-0.25.43-0.74l1,0.25,1.42-.25h1.17l0.12,0.25h0.31l0.25-.25q0,0.74.43,0.74L550,208v-0.49h2.71l0.19,0.25Zm-12,51.6v0.49h0.92v-0.49h-0.92Zm3.39,0.49v0.49h0.43v-1Zm1.79,21.27v0.25l0.49,0.49h0.12v-0.74h-0.62Zm0.92-16-0.31.25v0.49H550v-0.25Zm4.32,33.79v0.25l0.43-.49v-0.25ZM554,278.89v0.25l0.49,0.49h0.25v-0.74H554ZM559.88,218v0.8h-1.11l0.37-.31-1.42.31h-1.6l-0.12-.31-0.92.31,0.19,0.74-0.19,1.36v13.81l-0.31.25,0.31,0.25v12.15l0.19,1-0.19,1v6.35l0.43,0.49,0.62-.25,0.25,0.25h0.31l0.86-.25,0.19,0.25,0.25-.25h1.23q3.45,0,3.82-6.84,0-1.54.92-1.54v-0.8h-0.43v0.49h-0.31L563,244.24l0.18-1v-1.91l0.31-.25-0.31-.25v-5l-0.18-.31,0.18-.25V235l-0.18-1.6,0.18-.8-0.18-.25,0.18-1.36v-0.74L563,226l0.18-.25v-0.31q-1-6.35-2.4-6.35ZM558,260.33l-0.18,1.23h0.43v-1.23H558Zm13.38,8.51v0.74l0.43-.49v-0.25H571.4Z" transform="translate(-139.47 -205.52)"/></svg>